<mxfile host="app.diagrams.net" modified="2024-03-01T13:17:47.264Z" agent="Mozilla/5.0 (Windows NT 10.0; Win64; x64) AppleWebKit/537.36 (KHTML, like Gecko) Chrome/120.0.0.0 YaBrowser/24.1.0.0 Safari/537.36" etag="DsRn_mYHwllLaJN4aB-e" version="21.5.0" type="device">
  <diagram id="SNQxn0Sg8uv7-KmuZa3T" name="Страница — 1">
    <mxGraphModel dx="1381" dy="304" grid="1" gridSize="10" guides="1" tooltips="1" connect="1" arrows="1" fold="1" page="1" pageScale="1" pageWidth="827" pageHeight="1169" math="0" shadow="0">
      <root>
        <mxCell id="0" />
        <mxCell id="1" parent="0" />
        <mxCell id="OWFKqTvo_wW7p6A4P1cl-64" value="" style="html=1;dropTarget=0;whiteSpace=wrap;" parent="1" vertex="1">
          <mxGeometry x="-460" y="110" width="680" height="510" as="geometry" />
        </mxCell>
        <mxCell id="OWFKqTvo_wW7p6A4P1cl-65" value="" style="shape=module;jettyWidth=8;jettyHeight=4;" parent="OWFKqTvo_wW7p6A4P1cl-64" vertex="1">
          <mxGeometry x="1" width="20" height="20" relative="1" as="geometry">
            <mxPoint x="-27" y="7" as="offset" />
          </mxGeometry>
        </mxCell>
        <mxCell id="dibIABNJvkovGsQeEOql-1" value="&lt;br&gt;&lt;span style=&quot;color: rgb(240, 240, 240); font-family: Helvetica; font-size: 12px; font-style: normal; font-variant-ligatures: normal; font-variant-caps: normal; font-weight: 400; letter-spacing: normal; orphans: 2; text-align: center; text-indent: 0px; text-transform: none; widows: 2; word-spacing: 0px; -webkit-text-stroke-width: 0px; background-color: rgb(42, 37, 47); text-decoration-thickness: initial; text-decoration-style: initial; text-decoration-color: initial; float: none; display: inline !important;&quot;&gt;&amp;lt;&amp;lt;component&amp;gt;&amp;gt;&lt;/span&gt;&lt;br style=&quot;border-color: rgb(0, 0, 0); color: rgb(240, 240, 240); font-family: Helvetica; font-size: 12px; font-style: normal; font-variant-ligatures: normal; font-variant-caps: normal; font-weight: 400; letter-spacing: normal; orphans: 2; text-align: center; text-indent: 0px; text-transform: none; widows: 2; word-spacing: 0px; -webkit-text-stroke-width: 0px; background-color: rgb(42, 37, 47); text-decoration-thickness: initial; text-decoration-style: initial; text-decoration-color: initial;&quot;&gt;&lt;span style=&quot;color: rgb(240, 240, 240); font-family: Helvetica; font-size: 12px; font-style: normal; font-variant-ligatures: normal; font-variant-caps: normal; font-weight: 400; letter-spacing: normal; orphans: 2; text-align: center; text-indent: 0px; text-transform: none; widows: 2; word-spacing: 0px; -webkit-text-stroke-width: 0px; background-color: rgb(42, 37, 47); text-decoration-thickness: initial; text-decoration-style: initial; text-decoration-color: initial; float: none; display: inline !important;&quot;&gt;HabroLinker&lt;/span&gt;&lt;br&gt;" style="text;html=1;strokeColor=none;fillColor=none;align=center;verticalAlign=middle;whiteSpace=wrap;rounded=0;" vertex="1" parent="1">
          <mxGeometry x="-440" y="130" width="110" height="30" as="geometry" />
        </mxCell>
        <mxCell id="OWFKqTvo_wW7p6A4P1cl-69" value="&amp;lt;&amp;lt;component&amp;gt;&amp;gt;&lt;br&gt;Веб-страница" style="html=1;dropTarget=0;whiteSpace=wrap;" parent="1" vertex="1">
          <mxGeometry x="-420" y="200" width="160" height="60" as="geometry" />
        </mxCell>
        <mxCell id="OWFKqTvo_wW7p6A4P1cl-70" value="" style="shape=module;jettyWidth=8;jettyHeight=4;" parent="OWFKqTvo_wW7p6A4P1cl-69" vertex="1">
          <mxGeometry x="1" width="20" height="20" relative="1" as="geometry">
            <mxPoint x="-27" y="7" as="offset" />
          </mxGeometry>
        </mxCell>
        <mxCell id="dibIABNJvkovGsQeEOql-2" value="&amp;lt;&amp;lt;component&amp;gt;&amp;gt;&lt;br&gt;Бэкенд" style="html=1;dropTarget=0;whiteSpace=wrap;" vertex="1" parent="1">
          <mxGeometry x="-80" y="200" width="160" height="60" as="geometry" />
        </mxCell>
        <mxCell id="dibIABNJvkovGsQeEOql-3" value="" style="shape=module;jettyWidth=8;jettyHeight=4;" vertex="1" parent="dibIABNJvkovGsQeEOql-2">
          <mxGeometry x="1" width="20" height="20" relative="1" as="geometry">
            <mxPoint x="-27" y="7" as="offset" />
          </mxGeometry>
        </mxCell>
        <mxCell id="OWFKqTvo_wW7p6A4P1cl-51" value="&amp;lt;&amp;lt;component&amp;gt;&amp;gt;&lt;br&gt;СУБД PostgreSQL" style="html=1;dropTarget=0;whiteSpace=wrap;" parent="1" vertex="1">
          <mxGeometry x="-170" y="490" width="160" height="60" as="geometry" />
        </mxCell>
        <mxCell id="OWFKqTvo_wW7p6A4P1cl-52" value="" style="shape=module;jettyWidth=8;jettyHeight=4;" parent="OWFKqTvo_wW7p6A4P1cl-51" vertex="1">
          <mxGeometry x="1" width="20" height="20" relative="1" as="geometry">
            <mxPoint x="-27" y="7" as="offset" />
          </mxGeometry>
        </mxCell>
        <mxCell id="dibIABNJvkovGsQeEOql-4" value="&amp;lt;&amp;lt;component&amp;gt;&amp;gt;&lt;br&gt;Обработчик поисковых запросов" style="html=1;dropTarget=0;whiteSpace=wrap;" vertex="1" parent="1">
          <mxGeometry x="20" y="330" width="160" height="80" as="geometry" />
        </mxCell>
        <mxCell id="dibIABNJvkovGsQeEOql-5" value="" style="shape=module;jettyWidth=8;jettyHeight=4;" vertex="1" parent="dibIABNJvkovGsQeEOql-4">
          <mxGeometry x="1" width="20" height="20" relative="1" as="geometry">
            <mxPoint x="-27" y="7" as="offset" />
          </mxGeometry>
        </mxCell>
        <mxCell id="dibIABNJvkovGsQeEOql-6" value="&amp;lt;&amp;lt;component&amp;gt;&amp;gt;&lt;br&gt;Менеджер аккаунтов" style="html=1;dropTarget=0;whiteSpace=wrap;" vertex="1" parent="1">
          <mxGeometry x="-170" y="330" width="160" height="80" as="geometry" />
        </mxCell>
        <mxCell id="dibIABNJvkovGsQeEOql-7" value="" style="shape=module;jettyWidth=8;jettyHeight=4;" vertex="1" parent="dibIABNJvkovGsQeEOql-6">
          <mxGeometry x="1" width="20" height="20" relative="1" as="geometry">
            <mxPoint x="-27" y="7" as="offset" />
          </mxGeometry>
        </mxCell>
        <mxCell id="dibIABNJvkovGsQeEOql-8" value="&amp;lt;&amp;lt;component&amp;gt;&amp;gt;&lt;br&gt;Обработчик сообщений" style="html=1;dropTarget=0;whiteSpace=wrap;" vertex="1" parent="1">
          <mxGeometry x="-360" y="330" width="160" height="80" as="geometry" />
        </mxCell>
        <mxCell id="dibIABNJvkovGsQeEOql-9" value="" style="shape=module;jettyWidth=8;jettyHeight=4;" vertex="1" parent="dibIABNJvkovGsQeEOql-8">
          <mxGeometry x="1" width="20" height="20" relative="1" as="geometry">
            <mxPoint x="-27" y="7" as="offset" />
          </mxGeometry>
        </mxCell>
        <mxCell id="dibIABNJvkovGsQeEOql-19" value="" style="rounded=0;orthogonalLoop=1;jettySize=auto;html=1;endArrow=none;endFill=0;sketch=0;sourcePerimeterSpacing=0;targetPerimeterSpacing=0;exitX=0;exitY=0.5;exitDx=0;exitDy=0;" edge="1" target="dibIABNJvkovGsQeEOql-21" parent="1" source="dibIABNJvkovGsQeEOql-2">
          <mxGeometry relative="1" as="geometry">
            <mxPoint x="60" y="365" as="sourcePoint" />
          </mxGeometry>
        </mxCell>
        <mxCell id="dibIABNJvkovGsQeEOql-20" value="" style="rounded=0;orthogonalLoop=1;jettySize=auto;html=1;endArrow=halfCircle;endFill=0;entryX=0.5;entryY=0.5;endSize=6;strokeWidth=1;sketch=0;exitX=1;exitY=0.5;exitDx=0;exitDy=0;" edge="1" target="dibIABNJvkovGsQeEOql-21" parent="1" source="OWFKqTvo_wW7p6A4P1cl-69">
          <mxGeometry relative="1" as="geometry">
            <mxPoint x="100" y="365" as="sourcePoint" />
          </mxGeometry>
        </mxCell>
        <mxCell id="dibIABNJvkovGsQeEOql-21" value="" style="ellipse;whiteSpace=wrap;html=1;align=center;aspect=fixed;resizable=0;points=[];outlineConnect=0;sketch=0;" vertex="1" parent="1">
          <mxGeometry x="-200" y="225" width="10" height="10" as="geometry" />
        </mxCell>
        <mxCell id="dibIABNJvkovGsQeEOql-22" value="" style="rounded=0;orthogonalLoop=1;jettySize=auto;html=1;endArrow=none;endFill=0;sketch=0;sourcePerimeterSpacing=0;targetPerimeterSpacing=0;exitX=0.25;exitY=0;exitDx=0;exitDy=0;" edge="1" target="dibIABNJvkovGsQeEOql-24" parent="1" source="OWFKqTvo_wW7p6A4P1cl-51">
          <mxGeometry relative="1" as="geometry">
            <mxPoint x="-70" y="365" as="sourcePoint" />
          </mxGeometry>
        </mxCell>
        <mxCell id="dibIABNJvkovGsQeEOql-23" value="" style="rounded=0;orthogonalLoop=1;jettySize=auto;html=1;endArrow=halfCircle;endFill=0;entryX=0.5;entryY=0.5;endSize=6;strokeWidth=1;sketch=0;exitX=0.5;exitY=1;exitDx=0;exitDy=0;" edge="1" target="dibIABNJvkovGsQeEOql-24" parent="1" source="dibIABNJvkovGsQeEOql-8">
          <mxGeometry relative="1" as="geometry">
            <mxPoint x="-30" y="365" as="sourcePoint" />
          </mxGeometry>
        </mxCell>
        <mxCell id="dibIABNJvkovGsQeEOql-24" value="" style="ellipse;whiteSpace=wrap;html=1;align=center;aspect=fixed;resizable=0;points=[];outlineConnect=0;sketch=0;" vertex="1" parent="1">
          <mxGeometry x="-210" y="450" width="10" height="10" as="geometry" />
        </mxCell>
        <mxCell id="dibIABNJvkovGsQeEOql-27" value="" style="rounded=0;orthogonalLoop=1;jettySize=auto;html=1;endArrow=none;endFill=0;sketch=0;sourcePerimeterSpacing=0;targetPerimeterSpacing=0;exitX=0.75;exitY=0;exitDx=0;exitDy=0;" edge="1" target="dibIABNJvkovGsQeEOql-29" parent="1" source="OWFKqTvo_wW7p6A4P1cl-51">
          <mxGeometry relative="1" as="geometry">
            <mxPoint x="-150" y="395" as="sourcePoint" />
          </mxGeometry>
        </mxCell>
        <mxCell id="dibIABNJvkovGsQeEOql-28" value="" style="rounded=0;orthogonalLoop=1;jettySize=auto;html=1;endArrow=halfCircle;endFill=0;entryX=0.5;entryY=0.5;endSize=6;strokeWidth=1;sketch=0;exitX=0.5;exitY=1;exitDx=0;exitDy=0;" edge="1" target="dibIABNJvkovGsQeEOql-29" parent="1" source="dibIABNJvkovGsQeEOql-4">
          <mxGeometry relative="1" as="geometry">
            <mxPoint x="-110" y="395" as="sourcePoint" />
          </mxGeometry>
        </mxCell>
        <mxCell id="dibIABNJvkovGsQeEOql-29" value="" style="ellipse;whiteSpace=wrap;html=1;align=center;aspect=fixed;resizable=0;points=[];outlineConnect=0;sketch=0;" vertex="1" parent="1">
          <mxGeometry x="30" y="450" width="10" height="10" as="geometry" />
        </mxCell>
        <mxCell id="dibIABNJvkovGsQeEOql-30" value="" style="rounded=0;orthogonalLoop=1;jettySize=auto;html=1;endArrow=none;endFill=0;sketch=0;sourcePerimeterSpacing=0;targetPerimeterSpacing=0;exitX=0.5;exitY=0;exitDx=0;exitDy=0;" edge="1" target="dibIABNJvkovGsQeEOql-32" parent="1" source="OWFKqTvo_wW7p6A4P1cl-51">
          <mxGeometry relative="1" as="geometry">
            <mxPoint x="-80" y="540" as="sourcePoint" />
          </mxGeometry>
        </mxCell>
        <mxCell id="dibIABNJvkovGsQeEOql-31" value="" style="rounded=0;orthogonalLoop=1;jettySize=auto;html=1;endArrow=halfCircle;endFill=0;entryX=0.5;entryY=0.5;endSize=6;strokeWidth=1;sketch=0;exitX=0.5;exitY=1;exitDx=0;exitDy=0;" edge="1" target="dibIABNJvkovGsQeEOql-32" parent="1" source="dibIABNJvkovGsQeEOql-6">
          <mxGeometry relative="1" as="geometry">
            <mxPoint x="-80" y="460" as="sourcePoint" />
          </mxGeometry>
        </mxCell>
        <mxCell id="dibIABNJvkovGsQeEOql-32" value="" style="ellipse;whiteSpace=wrap;html=1;align=center;aspect=fixed;resizable=0;points=[];outlineConnect=0;sketch=0;" vertex="1" parent="1">
          <mxGeometry x="-95" y="440" width="10" height="10" as="geometry" />
        </mxCell>
        <mxCell id="dibIABNJvkovGsQeEOql-33" value="" style="endArrow=none;html=1;rounded=0;entryX=0.5;entryY=1;entryDx=0;entryDy=0;exitX=0.5;exitY=0;exitDx=0;exitDy=0;" edge="1" parent="1" source="dibIABNJvkovGsQeEOql-6" target="dibIABNJvkovGsQeEOql-2">
          <mxGeometry width="50" height="50" relative="1" as="geometry">
            <mxPoint x="-150" y="370" as="sourcePoint" />
            <mxPoint x="-100" y="320" as="targetPoint" />
          </mxGeometry>
        </mxCell>
        <mxCell id="dibIABNJvkovGsQeEOql-34" value="" style="endArrow=none;html=1;rounded=0;entryX=0.25;entryY=1;entryDx=0;entryDy=0;exitX=0.5;exitY=0;exitDx=0;exitDy=0;" edge="1" parent="1" source="dibIABNJvkovGsQeEOql-8" target="dibIABNJvkovGsQeEOql-2">
          <mxGeometry width="50" height="50" relative="1" as="geometry">
            <mxPoint x="-150" y="370" as="sourcePoint" />
            <mxPoint x="-100" y="320" as="targetPoint" />
          </mxGeometry>
        </mxCell>
        <mxCell id="dibIABNJvkovGsQeEOql-37" value="" style="endArrow=none;html=1;rounded=0;entryX=0.75;entryY=1;entryDx=0;entryDy=0;exitX=0.5;exitY=0;exitDx=0;exitDy=0;" edge="1" parent="1" source="dibIABNJvkovGsQeEOql-4" target="dibIABNJvkovGsQeEOql-2">
          <mxGeometry width="50" height="50" relative="1" as="geometry">
            <mxPoint x="-80" y="340" as="sourcePoint" />
            <mxPoint x="10" y="270" as="targetPoint" />
          </mxGeometry>
        </mxCell>
      </root>
    </mxGraphModel>
  </diagram>
</mxfile>
